<svg xmlns="http://www.w3.org/2000/svg" version="1.1" xmlns:xlink="http://www.w3.org/1999/xlink" xmlns:svgjs="http://svgjs.dev/svgjs" width="2000" height="2250" viewBox="0 0 2000 2250"><g transform="matrix(1,0,0,1,0.00006703124972773367,0)"><svg viewBox="0 0 320 360" data-background-color="#f8fafc" preserveAspectRatio="xMidYMid meet" height="2250" width="2000" xmlns="http://www.w3.org/2000/svg" xmlns:xlink="http://www.w3.org/1999/xlink"><g id="tight-bounds" transform="matrix(1,0,0,1,0.00001072500003829191,0)"><svg viewBox="0 0 320 360" height="360" width="320"><g><svg></svg></g><g><svg viewBox="0 0 320 360" height="360" width="320"><g><path transform="translate(-21.67367,-1.67367) scale(3.63347,3.63347)" d="M87.84 28.16c-3.42-5.92-31.01-21.84-37.84-21.84-6.83 0-34.41 15.92-37.84 21.84-3.19 5.51-3.19 38.18 0 43.69 3.43 5.91 31.01 21.83 37.84 21.83 6.83 0 34.42-15.92 37.84-21.84 3.19-5.51 3.19-38.17 0-43.68zM91.14 26.25c-3.98-6.88-32.88-23.75-41.14-23.75-8.26 0-37.16 16.87-41.14 23.75-3.86 6.66-3.86 40.84 0 47.5 3.98 6.88 32.88 23.75 41.14 23.75 8.26 0 37.16-16.87 41.14-23.74 3.86-6.67 3.86-40.85 0-47.51zM88.78 72.39c-3.51 6.07-31.78 22.38-38.78 22.38-7 0-35.27-16.32-38.78-22.39-3.27-5.65-3.27-39.13 0-44.78 3.51-6.06 31.78-22.37 38.78-22.37 7 0 35.27 16.32 38.78 22.38 3.27 5.65 3.27 39.13 0 44.78z" fill="#020617" fill-rule="nonzero" stroke="none" stroke-width="1" stroke-linecap="butt" stroke-linejoin="miter" stroke-miterlimit="10" stroke-dasharray="" stroke-dashoffset="0" font-family="none" font-weight="none" font-size="none" text-anchor="none" style="mix-blend-mode: normal" data-fill-palette-color="tertiary"></path></g><g transform="matrix(1,0,0,1,48,108.27768375108104)"><svg viewBox="0 0 224 143.44463249783792" height="143.44463249783792" width="224"><g><svg viewBox="0 0 224 143.44463249783792" height="143.44463249783792" width="224"><g transform="matrix(1,0,0,1,0,102.84752777890579)"><svg viewBox="0 0 224 40.59710471893212" height="40.59710471893212" width="224"><g id="textblocktransform"><svg viewBox="0 0 224 40.59710471893212" height="40.59710471893212" width="224" id="textblock"><g><svg viewBox="0 0 224 40.59710471893212" height="40.59710471893212" width="224"><g transform="matrix(1,0,0,1,0,0)"><svg width="224" viewBox="2.85 -36.2 265.92999999999995 48.2" height="40.59710471893212" data-palette-color="#f8fafc"><path d="M18.05 0.5L18.05 0.5Q13.1 0.5 9.7-1.8 6.3-4.1 4.58-8.22 2.85-12.35 2.85-17.9L2.85-17.9Q2.85-23.3 4.67-27.43 6.5-31.55 10.08-33.88 13.65-36.2 18.9-36.2L18.9-36.2Q24-36.2 26.5-34.6 29-33 29-30.6L29-30.6Q29-29 27.75-28.05 26.5-27.1 24.65-27.1L24.65-27.1Q24.65-28.65 24.1-30.13 23.55-31.6 22.28-32.58 21-33.55 18.8-33.55L18.8-33.55Q13.15-33.55 10.78-29.48 8.4-25.4 8.4-17.9L8.4-17.9Q8.4-13.45 9.47-10.03 10.55-6.6 12.85-4.7 15.15-2.8 18.8-2.8L18.8-2.8Q21.25-2.8 22.95-3.4 24.65-4 25.83-4.98 27-5.95 27.85-7.05L27.85-7.05Q28.25-6.8 28.53-6.33 28.8-5.85 28.8-5.1L28.8-5.1Q28.8-3.85 27.65-2.55 26.5-1.25 24.13-0.38 21.75 0.5 18.05 0.5ZM40.95 0.5L40.95 0.5Q37.6 0.5 35.4-1.45 33.2-3.4 33.2-7.5L33.2-7.5Q33.2-11.5 36.02-13.4 38.85-15.3 44.6-15.5L44.6-15.5 48.75-15.65 48.75-18.65Q48.75-20.45 48.45-21.83 48.15-23.2 47.15-24 46.15-24.8 44.1-24.8L44.1-24.8Q42.2-24.8 41.2-24.1 40.2-23.4 39.87-22.18 39.55-20.95 39.55-19.35L39.55-19.35Q37.45-19.35 36.37-20.08 35.3-20.8 35.3-22.5L35.3-22.5Q35.3-24.25 36.52-25.3 37.75-26.35 39.8-26.83 41.85-27.3 44.3-27.3L44.3-27.3Q48.9-27.3 51.17-25.35 53.45-23.4 53.45-18.65L53.45-18.65 53.45-5.7Q53.45-3.6 54.15-2.85 54.85-2.1 56.55-2.1L56.55-2.1 56.7-2.1 56.7 0 49.95 0 49.15-4.3 48.75-4.3Q47.7-2.9 46.7-1.83 45.7-0.75 44.37-0.13 43.05 0.5 40.95 0.5ZM42.1-2.6L42.1-2.6Q45.15-2.6 46.95-4.48 48.75-6.35 48.75-9.55L48.75-9.55 48.75-13.6 45.55-13.45Q41.3-13.25 39.67-11.73 38.05-10.2 38.05-7.25L38.05-7.25Q38.05-2.6 42.1-2.6ZM74.95 0L60.5 0 60.5-2.1 60.65-2.1Q62.35-2.1 63.55-2.73 64.75-3.35 64.75-5.7L64.75-5.7 64.75-21.3Q64.75-23.5 63.52-24.1 62.3-24.7 60.65-24.7L60.65-24.7 60.5-24.7 60.5-26.8 68.2-26.8 69.15-21.85 69.4-21.85Q70.05-23.35 70.8-24.6 71.55-25.85 72.8-26.58 74.05-27.3 76.25-27.3L76.25-27.3Q79-27.3 80.32-26.35 81.65-25.4 81.65-23.65L81.65-23.65Q81.65-22.1 80.57-21.1 79.5-20.1 77-20.1L77-20.1Q77-22.15 76.4-23.08 75.8-24 74.34-24L74.34-24Q72.95-24 72-22.9 71.05-21.8 70.5-20.1 69.95-18.4 69.7-16.57 69.45-14.75 69.45-13.3L69.45-13.3 69.45-5.45Q69.45-3.25 70.67-2.68 71.9-2.1 73.55-2.1L73.55-2.1 74.95-2.1 74.95 0ZM96.74 0.5L96.74 0.5Q91.29 0.5 88.22-3.1 85.14-6.7 85.14-13.2L85.14-13.2Q85.14-20.2 88.04-23.75 90.94-27.3 96.24-27.3L96.24-27.3Q101.09-27.3 103.87-24.3 106.64-21.3 106.64-15.35L106.64-15.35 106.64-13.05 89.99-13.05Q90.09-7.6 91.97-5.13 93.84-2.65 97.44-2.65L97.44-2.65Q100.04-2.65 101.87-3.73 103.69-4.8 104.59-6.15L104.59-6.15Q104.94-6 105.24-5.55 105.54-5.1 105.54-4.45L105.54-4.45Q105.54-3.45 104.59-2.3 103.64-1.15 101.69-0.33 99.74 0.5 96.74 0.5ZM90.09-15.75L101.59-15.75Q101.59-19.75 100.37-22.18 99.14-24.6 96.14-24.6L96.14-24.6Q93.39-24.6 91.87-22.33 90.34-20.05 90.09-15.75L90.09-15.75ZM123.49 0.5L123.49 0.5Q118.04 0.5 114.97-3.1 111.89-6.7 111.89-13.2L111.89-13.2Q111.89-20.2 114.79-23.75 117.69-27.3 122.99-27.3L122.99-27.3Q127.84-27.3 130.62-24.3 133.39-21.3 133.39-15.35L133.39-15.35 133.39-13.05 116.74-13.05Q116.84-7.6 118.72-5.13 120.59-2.65 124.19-2.65L124.19-2.65Q126.79-2.65 128.62-3.73 130.44-4.8 131.34-6.15L131.34-6.15Q131.69-6 131.99-5.55 132.29-5.1 132.29-4.45L132.29-4.45Q132.29-3.45 131.34-2.3 130.39-1.15 128.44-0.33 126.49 0.5 123.49 0.5ZM116.84-15.75L128.34-15.75Q128.34-19.75 127.12-22.18 125.89-24.6 122.89-24.6L122.89-24.6Q120.14-24.6 118.62-22.33 117.09-20.05 116.84-15.75L116.84-15.75ZM151.99 0L137.54 0 137.54-2.1 137.69-2.1Q139.39-2.1 140.59-2.73 141.79-3.35 141.79-5.7L141.79-5.7 141.79-21.3Q141.79-23.5 140.56-24.1 139.34-24.7 137.69-24.7L137.69-24.7 137.54-24.7 137.54-26.8 145.24-26.8 146.19-21.85 146.44-21.85Q147.09-23.35 147.84-24.6 148.59-25.85 149.84-26.58 151.09-27.3 153.29-27.3L153.29-27.3Q156.04-27.3 157.36-26.35 158.69-25.4 158.69-23.65L158.69-23.65Q158.69-22.1 157.61-21.1 156.54-20.1 154.04-20.1L154.04-20.1Q154.04-22.15 153.44-23.08 152.84-24 151.39-24L151.39-24Q149.99-24 149.04-22.9 148.09-21.8 147.54-20.1 146.99-18.4 146.74-16.57 146.49-14.75 146.49-13.3L146.49-13.3 146.49-5.45Q146.49-3.25 147.71-2.68 148.94-2.1 150.59-2.1L150.59-2.1 151.99-2.1 151.99 0ZM171.79 0.5L171.79 0.5Q168.54 0.5 166.31-0.38 164.09-1.25 162.96-2.85 161.84-4.45 161.84-6.55L161.84-6.55Q161.84-7.55 162.26-8.3 162.69-9.05 163.49-9.47 164.29-9.9 165.44-9.9L165.44-9.9Q165.54-7.85 166.24-6.03 166.94-4.2 168.39-3.08 169.84-1.95 172.19-1.95L172.19-1.95Q175.54-1.95 177.44-3.58 179.34-5.2 179.34-8.25L179.34-8.25Q179.34-10.1 178.61-11.38 177.89-12.65 176.21-13.75 174.54-14.85 171.59-16.05L171.59-16.05Q168.49-17.35 166.44-18.85 164.39-20.35 163.39-22.38 162.39-24.4 162.39-27.15L162.39-27.15Q162.39-30 163.81-32.02 165.24-34.05 167.71-35.13 170.19-36.2 173.34-36.2L173.34-36.2Q177.79-36.2 180.24-34.5 182.69-32.8 182.69-30.6L182.69-30.6Q182.69-29 181.61-28.18 180.54-27.35 178.74-27.35L178.74-27.35Q178.74-28.9 178.21-30.35 177.69-31.8 176.46-32.75 175.24-33.7 173.14-33.7L173.14-33.7Q170.24-33.7 168.64-32.15 167.04-30.6 167.04-28L167.04-28Q167.04-26 167.76-24.63 168.49-23.25 170.19-22.18 171.89-21.1 174.79-19.9L174.79-19.9Q179.19-18.1 181.64-15.75 184.09-13.4 184.09-9.55L184.09-9.55Q184.09-6.35 182.59-4.13 181.09-1.9 178.31-0.7 175.54 0.5 171.79 0.5ZM187.53 12L187.53 9.65Q190.93 9.65 193.11 8.35 195.28 7.05 196.63 4.83 197.98 2.6 198.78-0.2L198.78-0.2 189.53-22.05Q188.88-23.6 188.16-24.15 187.43-24.7 185.98-24.7L185.98-24.7 185.83-24.7 185.83-26.8 197.83-26.8 197.83-24.7 197.68-24.7Q196.18-24.7 195.43-24.13 194.68-23.55 194.68-22.3L194.68-22.3Q194.68-21.9 194.78-21.45 194.88-21 195.08-20.45L195.08-20.45 198.73-11.55Q199.23-10.4 199.71-9.03 200.18-7.65 200.58-6.4 200.98-5.15 201.13-4.3L201.13-4.3Q201.48-5.75 202.06-7.3 202.63-8.85 203.13-10.35L203.13-10.35 206.48-20.1Q206.73-20.7 206.83-21.28 206.93-21.85 206.93-22.25L206.93-22.25Q206.93-23.55 206.11-24.13 205.28-24.7 203.63-24.7L203.63-24.7 203.48-24.7 203.48-26.8 213.88-26.8 213.88-24.7 213.73-24.7Q212.28-24.7 211.53-23.95 210.78-23.2 209.93-20.8L209.93-20.8 202.33 0.2Q201.03 3.85 199.83 6.15 198.63 8.45 197.16 9.73 195.68 11 193.48 11.5 191.28 12 187.98 12L187.98 12 187.53 12ZM228.73 0L215.28 0 215.28-2.1 215.68-2.1Q217.38-2.1 218.58-2.73 219.78-3.35 219.78-5.7L219.78-5.7 219.78-21.3Q219.78-23.5 218.61-24.1 217.43-24.7 215.78-24.7L215.78-24.7 215.53-24.7 215.53-26.8 223.63-26.8 224.28-22.75 224.53-22.75Q225.58-24.65 226.76-25.63 227.93-26.6 229.33-26.95 230.73-27.3 232.33-27.3L232.33-27.3Q236.28-27.3 238.51-24.98 240.73-22.65 240.73-17.5L240.73-17.5 240.73-5.7Q240.73-3.35 241.76-2.73 242.78-2.1 244.48-2.1L244.48-2.1 244.73-2.1 244.73 0 236.03 0 236.03-17.25Q236.03-20.5 234.81-22.3 233.58-24.1 230.53-24.1L230.53-24.1Q228.28-24.1 226.96-22.98 225.63-21.85 225.06-20 224.48-18.15 224.48-16L224.48-16 224.48-5.45Q224.48-3.25 225.66-2.68 226.83-2.1 228.48-2.1L228.48-2.1 228.73-2.1 228.73 0ZM260.28 0.5L260.28 0.5Q256.98 0.5 254.4-0.9 251.83-2.3 250.35-5.33 248.88-8.35 248.88-13.25L248.88-13.25Q248.88-18.6 250.35-21.68 251.83-24.75 254.35-26.03 256.88-27.3 260.03-27.3L260.03-27.3Q262.13-27.3 264.13-26.75 266.13-26.2 267.43-25.08 268.73-23.95 268.73-22.2L268.73-22.2Q268.73-21.05 268.23-20.35 267.73-19.65 266.75-19.35 265.78-19.05 264.28-19.05L264.28-19.05Q264.28-20.65 263.9-21.95 263.53-23.25 262.63-24.03 261.73-24.8 260.03-24.8L260.03-24.8Q258.13-24.8 256.7-23.8 255.28-22.8 254.5-20.3 253.73-17.8 253.73-13.3L253.73-13.3Q253.73-8 255.5-5.38 257.28-2.75 261.28-2.75L261.28-2.75Q263.63-2.75 265.35-3.73 267.08-4.7 267.93-6.25L267.93-6.25Q268.33-5.95 268.55-5.48 268.78-5 268.78-4.3L268.78-4.3Q268.78-3.15 267.83-2.05 266.88-0.95 265-0.23 263.13 0.5 260.28 0.5Z" opacity="1" transform="matrix(1,0,0,1,0,0)" fill="#f8fafc" class="wordmark-text-0" data-fill-palette-color="quaternary" id="text-0"></path></svg></g></svg></g></svg></g></svg></g><g transform="matrix(1,0,0,1,65.36823715736043,0)"><svg viewBox="0 0 93.26352568527916 93.26352568527916" height="93.26352568527916" width="93.26352568527916"><g><svg></svg></g><g id="icon-0"><svg viewBox="0 0 93.26352568527916 93.26352568527916" height="93.26352568527916" width="93.26352568527916"><g><rect width="84.80072428050383" height="84.80072428050383" x="4.231400702387667" y="4.231400702387667" fill="#020617" data-fill-palette-color="accent"></rect><rect width="84.80072428050383" height="84.80072428050383" x="1.7763568394002505e-15" y="8.462801404775332" fill="#020617" opacity="0.5" data-fill-palette-color="accent"></rect></g><g transform="matrix(1,0,0,1,13.898163742352033,12.089716292536188)"><svg viewBox="0 0 65.4671982005751 69.08409310020679" height="69.08409310020679" width="65.4671982005751"><g><svg xmlns="http://www.w3.org/2000/svg" xmlns:xlink="http://www.w3.org/1999/xlink" version="1.1" x="0" y="0" viewBox="5.93917499276149 6.5 82.1608250072385 86.70000000000002" style="enable-background:new 0 0 100 100;" xml:space="preserve" height="69.08409310020679" width="65.4671982005751" class="icon-cg-0" data-fill-palette-color="quaternary" id="cg-0"><g fill="#f8fafc" data-fill-palette-color="quaternary"><g fill="#f8fafc" data-fill-palette-color="quaternary"><g fill="#f8fafc" data-fill-palette-color="quaternary"><g fill="#f8fafc" data-fill-palette-color="quaternary"><g fill="#f8fafc" data-fill-palette-color="quaternary"><path class="" d="M65.2 41.7c-0.4 0-0.8-0.2-1-0.5l-5.3-5.3-3.1 12 13.4 4.3 0.1 0c0.1 0 0.1 0 0.2 0.1l0 0c0.1 0 0.1 0.1 0.2 0.1l0.1 0.1c0 0 0.1 0.1 0.1 0.1l0.2 0.3c0 0 0 0.1 0.1 0.1l0.1 0.4v14.2c0 0.7-0.6 1.3-1.3 1.3h-5.5c-0.7 0-1.3-0.6-1.3-1.3v-7.6l-22-7.9 0 0-0.4-0.1h0c-0.4-0.3-0.7-0.8-0.6-1.3l0-0.2 2.7-17.3-8.5 4.2-3.2 9.4c-0.2 0.7-0.9 1-1.6 0.8l-3.7-1.3c-0.7-0.2-1-0.9-0.8-1.6l4.6-13.4c0.1-0.4 0.4-0.7 0.8-0.8l0 0h0c0.1-0.1 0.2-0.1 0.3-0.2l14.2-6.9c0.2-0.1 0.4-0.1 0.6-0.1 0.1 0 0.2 0 0.2 0l14.7 2.3c0.1 0 0.2 0 0.3 0.1 0 0 0 0 0 0 0 0 0 0 0.1 0 0.1 0.1 0.3 0.1 0.4 0.2l9.9 9.9c0 0 0.1 0.1 0.1 0.1h7.1c0.7 0 1.3 0.6 1.3 1.3v3.4c0 0.7-0.6 1.3-1.3 1.3H65.2z" fill="#f8fafc" data-fill-palette-color="quaternary"></path><path class="" d="M88.1 73.9v2.6c0 0.5-0.4 0.9-0.9 0.9H62.8c-0.5 0-0.9-0.4-0.9-0.9v-2.6c0-0.5 0.4-0.9 0.9-0.9h24.3C87.7 73 88.1 73.4 88.1 73.9z" fill="#f8fafc" data-fill-palette-color="quaternary"></path><path class="" d="M74.4 81.6v2.6c0 0.5-0.4 0.9-0.9 0.9H49.2c-0.5 0-0.9-0.4-0.9-0.9v-2.6c0-0.5 0.4-0.9 0.9-0.9h24.3C74 80.7 74.4 81.1 74.4 81.6z" fill="#f8fafc" data-fill-palette-color="quaternary"></path><path class="" d="M60.8 89.7v2.6c0 0.5-0.4 0.9-0.9 0.9H35.6c-0.5 0-0.9-0.4-0.9-0.9v-2.6c0-0.5 0.4-0.9 0.9-0.9h24.3C60.4 88.8 60.8 89.2 60.8 89.7z" fill="#f8fafc" data-fill-palette-color="quaternary"></path><path class="" d="M53.8 6.5c4.2 0 7.6 3.4 7.6 7.6 0 4.2-3.4 7.6-7.6 7.6-4.2 0-7.6-3.4-7.6-7.6C46.2 10 49.6 6.5 53.8 6.5z" fill="#f8fafc" data-fill-palette-color="quaternary"></path><path class="" d="M51.9 59.8l-2.5 11.4c0 0.1-0.1 0.3-0.2 0.4 0 0 0 0 0 0.1 0 0-0.1 0.1-0.1 0.1l-8.6 11c-0.4 0.5-1.2 0.6-1.8 0.2l-4.2-3.4c-0.5-0.4-0.6-1.2-0.2-1.8l5.6-7.2 3-14.1L51.9 59.8z" fill="#f8fafc" data-fill-palette-color="quaternary"></path><path class="" d="M36.9 57.3c0.7 0.2 1 1 0.8 1.6L32.9 72c-0.2 0.7-1 1-1.6 0.8L6.8 63.9c-0.7-0.2-1-1-0.8-1.6l4.8-13.2c0.2-0.7 1-1 1.6-0.8L36.9 57.3z" fill="#f8fafc" data-fill-palette-color="quaternary"></path><path class="" d="M21.5 46.6l9.3 3.4c0.2 0.1 0.4 0.3 0.3 0.6l-0.8 2.2c-0.1 0.2-0.4 0.4-0.6 0.3l-9.3-3.4c-0.2-0.1-0.4-0.3-0.3-0.6l0.8-2.2C21.1 46.6 21.3 46.5 21.5 46.6z" fill="#f8fafc" data-fill-palette-color="quaternary"></path></g></g></g></g></g></svg></g></svg></g></svg></g></svg></g><g></g></svg></g></svg></g></svg></g><defs></defs></svg><rect width="320" height="360" fill="none" stroke="none" visibility="hidden"></rect></g></svg></g></svg>